<mxfile host="app.diagrams.net" modified="2024-02-08T00:56:43.586Z" agent="Mozilla/5.0 (Windows NT 10.0; Win64; x64) AppleWebKit/537.36 (KHTML, like Gecko) Chrome/121.0.0.0 Safari/537.36" version="23.1.2" etag="v9rqUQWER9AEa-vbZCSj" type="github">
  <diagram name="Page-1" id="8TB5Qfe3RnDE4VOAxSqc">
    <mxGraphModel>
      <root>
        <mxCell id="0" />
        <mxCell id="1" parent="0" />
      </root>
    </mxGraphModel>
  </diagram>
</mxfile>
